<svg width="24" height="24" viewBox="0 0 24 24" fill="none" xmlns="http://www.w3.org/2000/svg">
<g clip-path="url(#clip0_3_18429)">
<g clip-path="url(#clip1_3_18429)">
<path d="M21.419 19.9701C18.8735 22.781 15.7044 24.1679 11.8911 23.9838C6.53515 23.7252 2.13065 20.0145 1.02432 14.8697C0.473664 12.309 0.800714 9.83485 1.96868 7.47634C2.05055 7.31097 2.05284 7.17517 1.99528 7.00567C1.35179 5.11092 0.715665 3.21378 0.0779559 1.31715C0.0519103 1.23968 0.029867 1.16093 0 1.06329C1.95232 1.06329 3.87714 1.06329 5.81928 1.06329C6.00194 1.59955 6.18431 2.13474 6.3684 2.67517C10.5914 0.432221 14.7865 0.378767 18.8876 2.89629C21.7738 4.6681 23.4883 7.55726 23.9925 10.3333C22.4823 10.3333 20.9744 10.3333 19.4585 10.3333C18.4875 7.78231 16.7022 6.08349 13.9487 5.53011C11.2014 4.97796 8.88778 5.85232 6.94578 7.85429C6.30058 5.94248 5.66077 4.04677 5.01787 2.14182C3.86474 2.14182 2.71723 2.14182 1.5309 2.14182C1.6125 2.39668 1.68729 2.64122 1.76893 2.88354C3.10921 6.86199 4.43613 10.8449 5.79654 14.8167C6.64372 17.2902 8.36796 18.905 10.9698 19.4897C14.1387 20.2019 17.3204 18.736 18.8948 15.9256C19.0855 15.5851 19.2169 15.2132 19.3893 14.8622C19.4247 14.79 19.52 14.6971 19.5883 14.6967C21.0319 14.688 22.4756 14.6911 23.9192 14.6929C23.9369 14.6929 23.9545 14.7047 24 14.7211C23.6054 16.6828 22.7474 18.4254 21.419 19.9701Z" fill="url(#paint0_linear_3_18429)"/>
<path d="M14.5117 15.3834C12.4071 16.73 9.79055 15.7765 9.13173 13.4417C8.5772 11.4764 9.8277 9.47316 11.8634 9.06551C13.8277 8.67214 15.7636 10.0963 15.976 12.1063C16.1198 13.4663 15.615 14.5511 14.5117 15.3834Z" fill="#A251FF"/>
</g>
</g>
<defs>
<linearGradient id="paint0_linear_3_18429" x1="12" y1="1" x2="12" y2="24" gradientUnits="userSpaceOnUse">
<stop stop-color="#A251FF"/>
<stop offset="1" stop-color="#4600FF"/>
</linearGradient>
<clipPath id="clip0_3_18429">
<rect width="24" height="24" fill="white"/>
</clipPath>
<clipPath id="clip1_3_18429">
<rect width="24" height="24" fill="white"/>
</clipPath>
</defs>
</svg>
